<?xml version="1.0" encoding="UTF-8" standalone="no"?>
<!-- Created with Inkscape (http://www.inkscape.org/) -->

<svg
   xmlns:dc="http://purl.org/dc/elements/1.1/"
   xmlns:cc="http://creativecommons.org/ns#"
   xmlns:rdf="http://www.w3.org/1999/02/22-rdf-syntax-ns#"
   xmlns:svg="http://www.w3.org/2000/svg"
   xmlns="http://www.w3.org/2000/svg"
   xmlns:sodipodi="http://sodipodi.sourceforge.net/DTD/sodipodi-0.dtd"
   xmlns:inkscape="http://www.inkscape.org/namespaces/inkscape"
   id="svg2"
   version="1.1"
   inkscape:version="0.48.4 r9939"
   width="206.54137"
   height="37.856815"
   xml:space="preserve"
   sodipodi:docname="LS_DSS_SU_CMYK_NEGATIV.svg"><metadata
     id="metadata8"><rdf:RDF><cc:Work
         rdf:about=""><dc:format>image/svg+xml</dc:format><dc:type
           rdf:resource="http://purl.org/dc/dcmitype/StillImage" /><dc:title /></cc:Work></rdf:RDF></metadata><defs
     id="defs6"><clipPath
       clipPathUnits="userSpaceOnUse"
       id="clipPath30"><path
         d="m 0,64.75 145.5,0 L 145.5,0 0,0 0,64.75 z"
         id="path32"
         inkscape:connector-curvature="0" /></clipPath></defs><sodipodi:namedview
     pagecolor="#24498a"
     bordercolor="#666666"
     borderopacity="1"
     objecttolerance="10"
     gridtolerance="10"
     guidetolerance="10"
     inkscape:pageopacity="0.98039216"
     inkscape:pageshadow="2"
     inkscape:window-width="1280"
     inkscape:window-height="961"
     id="namedview4"
     showgrid="false"
     inkscape:zoom="2.2707903"
     inkscape:cx="131.88892"
     inkscape:cy="56.724486"
     inkscape:window-x="1016"
     inkscape:window-y="-8"
     inkscape:window-maximized="1"
     inkscape:current-layer="g10"
     fit-margin-top="0"
     fit-margin-left="0"
     fit-margin-right="0"
     fit-margin-bottom="0" /><g
     id="g10"
     inkscape:groupmode="layer"
     inkscape:label="LS_DSS_SU_CMYK_NEGATIV"
     transform="matrix(1.25,0,0,-1.25,-8.491875,70.805219)"><g
       id="g3226"
       transform="translate(0,-1.905725)"><g
         transform="translate(18.0728,44.7026)"
         id="g12"><path
           id="path14"
           style="fill:#ffffff;fill-opacity:1;fill-rule:nonzero;stroke:none"
           d="m 0,0 -1.508,1.514 0,-0.344 -2.002,0 0,7.926 1.905,0 -0.002,-0.345 1.519,1.501 -1.5,1.519 -0.002,-0.35 -4.246,0 0,-10.267 -3.795,0 0,-2.228 3.795,0 0,-10.871 4.152,0 0.002,-0.378 1.502,1.518 -1.519,1.502 0.002,-0.316 -1.813,0 0,8.465 1.996,0 L -1.515,-1.506 0,0 z"
           inkscape:connector-curvature="0" /></g><path
         id="path16"
         style="fill:#ffffff;fill-opacity:1;fill-rule:nonzero;stroke:none"
         d="m 23.149,56.852 -3.895,0 0,-3.894 3.895,0 0,3.894 z"
         inkscape:connector-curvature="0" /><path
         id="path18"
         style="fill:#ffffff;fill-opacity:1;fill-rule:nonzero;stroke:none"
         d="m 23.149,46.651 -3.895,0 0,-3.893 3.895,0 0,3.893 z"
         inkscape:connector-curvature="0" /><path
         id="path20"
         style="fill:#ffffff;fill-opacity:1;fill-rule:nonzero;stroke:none"
         d="m 19.254,31.836 3.895,0 0,3.893 -3.895,0 0,-3.893 z"
         inkscape:connector-curvature="0" /><g
         transform="translate(9.5605,48.0259)"
         id="g22"><path
           id="path24"
           style="fill:#ffffff;fill-opacity:1;fill-rule:nonzero;stroke:none"
           d="m 0,0 0,-1.569 0.6,0 0,2.169 -2.766,0 0,9.324 27.147,0 0,-8.479 0.601,0 0,9.079 -28.348,0 L -2.767,0 -2.766,0 0,0 z"
           inkscape:connector-curvature="0" /></g><path
         d="m 25.6538,36.8042 0,-6.539 10.455,0 0,6.539 c 0,2.406 -1.628,4.428 -3.839,5.037 l 0,1.278 c 1.239,0.595 2.107,1.964 2.107,3.558 0,2.143 -1.564,3.879 -3.496,3.879 -1.93,0 -3.497,-1.736 -3.497,-3.879 0,-1.594 0.87,-2.963 2.11,-3.558 l 0,-1.278 c -2.213,-0.608 -3.84,-2.631 -3.84,-5.037"
         style="fill:#ffffff;fill-opacity:1;fill-rule:nonzero;stroke:none"
         id="path36"
         inkscape:connector-curvature="0" /><path
         d="m 24.9878,30.2651 0,0.538 -17.593,0 0,9.992 2.765,0 0,2.233 -0.599,0 0,-1.633 -2.766,0.007 0,-0.007 -0.001,0 0.001,-11.193 18.193,0 0,0.063 z"
         style="fill:#ffffff;fill-opacity:1;fill-rule:nonzero;stroke:none"
         id="path40"
         inkscape:connector-curvature="0" /></g><g
       id="g3194"
       transform="translate(33.076889,22.724624)"><path
         d="m 11.623,18.7866 c -0.09,-0.312 -0.206,-0.572 -0.347,-0.78 -0.141,-0.207 -0.3,-0.372 -0.478,-0.492 -0.177,-0.121 -0.357,-0.213 -0.538,-0.277 -0.181,-0.064 -0.352,-0.104 -0.513,-0.121 -0.161,-0.017 -0.295,-0.025 -0.403,-0.025 l -1.589,0 0,5.574 1.609,0 c 0.443,0 0.815,-0.064 1.117,-0.191 0.302,-0.128 0.549,-0.309 0.74,-0.544 0.191,-0.235 0.328,-0.521 0.412,-0.86 0.084,-0.339 0.126,-0.723 0.126,-1.152 0,-0.443 -0.045,-0.82 -0.136,-1.132 m -2.359,4.684 -2.465,0 0,-7.184 2.465,0 c 0.597,0 1.113,0.084 1.549,0.251 0.436,0.168 0.795,0.411 1.077,0.73 0.281,0.318 0.489,0.711 0.624,1.177 0.134,0.466 0.201,1.001 0.201,1.605 0,1.154 -0.299,2.012 -0.896,2.575 -0.597,0.564 -1.448,0.846 -2.555,0.846"
         style="fill:#ffffff;fill-opacity:1;fill-rule:nonzero;stroke:none"
         id="path44"
         inkscape:connector-curvature="0" /><path
         d="m 19.2446,18.2588 c 0,0.349 -0.065,0.642 -0.196,0.88 -0.131,0.238 -0.304,0.434 -0.518,0.589 -0.215,0.154 -0.46,0.277 -0.735,0.367 -0.275,0.09 -0.557,0.169 -0.845,0.236 -0.289,0.067 -0.57,0.13 -0.845,0.186 -0.276,0.057 -0.522,0.13 -0.74,0.217 -0.218,0.087 -0.392,0.199 -0.523,0.337 -0.131,0.137 -0.196,0.317 -0.196,0.538 0,0.235 0.045,0.431 0.136,0.588 0.09,0.158 0.211,0.284 0.362,0.378 0.151,0.094 0.324,0.161 0.518,0.201 0.195,0.041 0.393,0.061 0.594,0.061 0.496,0 0.904,-0.116 1.222,-0.348 0.319,-0.231 0.505,-0.605 0.558,-1.121 l 0.906,0 c -0.013,0.395 -0.091,0.736 -0.231,1.021 -0.141,0.285 -0.329,0.521 -0.564,0.709 -0.235,0.188 -0.509,0.326 -0.825,0.412 -0.315,0.088 -0.657,0.131 -1.026,0.131 -0.329,0 -0.649,-0.042 -0.961,-0.125 -0.312,-0.084 -0.59,-0.212 -0.835,-0.382 -0.245,-0.172 -0.441,-0.39 -0.589,-0.655 -0.147,-0.264 -0.221,-0.578 -0.221,-0.94 0,-0.329 0.066,-0.601 0.196,-0.815 0.131,-0.215 0.305,-0.393 0.524,-0.533 0.217,-0.141 0.464,-0.254 0.739,-0.338 0.275,-0.083 0.556,-0.156 0.845,-0.216 0.289,-0.06 0.57,-0.122 0.845,-0.186 0.275,-0.064 0.52,-0.144 0.735,-0.241 0.214,-0.098 0.387,-0.223 0.518,-0.378 0.131,-0.154 0.196,-0.355 0.196,-0.603 0,-0.262 -0.054,-0.477 -0.161,-0.644 -0.107,-0.168 -0.248,-0.301 -0.423,-0.398 -0.174,-0.097 -0.37,-0.166 -0.588,-0.206 -0.218,-0.04 -0.435,-0.06 -0.649,-0.06 -0.275,0 -0.538,0.033 -0.79,0.1 -0.251,0.067 -0.473,0.171 -0.664,0.312 -0.191,0.141 -0.345,0.321 -0.463,0.538 -0.117,0.219 -0.176,0.478 -0.176,0.78 l -0.905,0 c 0,-0.436 0.079,-0.813 0.236,-1.132 0.158,-0.318 0.372,-0.582 0.644,-0.789 0.272,-0.208 0.587,-0.363 0.946,-0.463 0.359,-0.101 0.74,-0.151 1.142,-0.151 0.328,0 0.659,0.04 0.991,0.121 0.332,0.08 0.632,0.206 0.9,0.377 0.269,0.171 0.488,0.392 0.659,0.664 0.172,0.272 0.257,0.599 0.257,0.981"
         style="fill:#ffffff;fill-opacity:1;fill-rule:nonzero;stroke:none"
         id="path48"
         inkscape:connector-curvature="0" /><path
         d="m 25.0498,19.7275 c -0.215,0.154 -0.459,0.277 -0.734,0.367 -0.276,0.091 -0.558,0.17 -0.846,0.237 -0.288,0.066 -0.57,0.129 -0.845,0.186 -0.275,0.057 -0.521,0.129 -0.74,0.216 -0.217,0.087 -0.392,0.2 -0.523,0.337 -0.13,0.137 -0.196,0.317 -0.196,0.538 0,0.235 0.046,0.432 0.136,0.589 0.091,0.157 0.211,0.283 0.362,0.377 0.151,0.094 0.324,0.161 0.518,0.201 0.195,0.041 0.393,0.061 0.594,0.061 0.496,0 0.904,-0.116 1.223,-0.347 0.318,-0.232 0.504,-0.606 0.558,-1.122 l 0.906,0 c -0.014,0.396 -0.091,0.736 -0.232,1.021 -0.141,0.285 -0.329,0.522 -0.563,0.71 -0.235,0.187 -0.51,0.325 -0.826,0.412 -0.315,0.087 -0.657,0.131 -1.026,0.131 -0.329,0 -0.649,-0.042 -0.96,-0.126 -0.312,-0.084 -0.591,-0.211 -0.836,-0.382 -0.244,-0.172 -0.441,-0.389 -0.588,-0.655 -0.148,-0.264 -0.221,-0.578 -0.221,-0.94 0,-0.329 0.065,-0.601 0.195,-0.815 0.131,-0.215 0.306,-0.392 0.524,-0.533 0.218,-0.141 0.464,-0.254 0.739,-0.338 0.276,-0.083 0.557,-0.155 0.845,-0.216 0.289,-0.06 0.571,-0.122 0.846,-0.186 0.274,-0.063 0.519,-0.144 0.734,-0.241 0.215,-0.098 0.388,-0.223 0.518,-0.378 0.131,-0.154 0.196,-0.355 0.196,-0.603 0,-0.262 -0.053,-0.477 -0.16,-0.644 -0.108,-0.168 -0.249,-0.3 -0.423,-0.398 -0.175,-0.097 -0.371,-0.166 -0.589,-0.206 -0.218,-0.04 -0.434,-0.06 -0.649,-0.06 -0.275,0 -0.538,0.034 -0.79,0.1 -0.251,0.067 -0.472,0.171 -0.664,0.312 -0.191,0.141 -0.345,0.321 -0.462,0.539 -0.118,0.218 -0.176,0.478 -0.176,0.779 l -0.906,0 c 0,-0.436 0.079,-0.813 0.237,-1.131 0.157,-0.319 0.372,-0.583 0.643,-0.79 0.272,-0.208 0.587,-0.362 0.946,-0.463 0.359,-0.101 0.74,-0.151 1.142,-0.151 0.329,0 0.659,0.04 0.991,0.121 0.332,0.08 0.632,0.206 0.901,0.377 0.268,0.171 0.488,0.392 0.659,0.664 0.171,0.272 0.256,0.599 0.256,0.981 0,0.349 -0.065,0.642 -0.196,0.881 -0.131,0.237 -0.304,0.434 -0.518,0.588"
         style="fill:#ffffff;fill-opacity:1;fill-rule:nonzero;stroke:none"
         id="path52"
         inkscape:connector-curvature="0" /><path
         d="m 11.623,8.2163 c -0.09,-0.312 -0.206,-0.572 -0.347,-0.78 -0.141,-0.207 -0.3,-0.372 -0.478,-0.492 C 10.621,6.8233 10.441,6.7313 10.26,6.6673 10.079,6.6033 9.908,6.5633 9.747,6.5463 9.586,6.5293 9.452,6.5213 9.344,6.5213 l -1.589,0 0,5.574 1.609,0 c 0.443,0 0.815,-0.064 1.117,-0.191 0.302,-0.128 0.549,-0.309 0.74,-0.544 0.191,-0.235 0.328,-0.521 0.412,-0.86 0.084,-0.339 0.126,-0.723 0.126,-1.152 0,-0.443 -0.045,-0.82 -0.136,-1.132 m -2.359,4.684 -2.465,0 0,-7.184 2.465,0 c 0.597,0 1.113,0.084 1.549,0.251 0.436,0.168 0.795,0.411 1.077,0.73 0.281,0.318 0.489,0.711 0.624,1.177 0.134,0.466 0.201,1.001 0.201,1.605 0,1.154 -0.299,2.012 -0.896,2.575 -0.597,0.564 -1.448,0.846 -2.555,0.846"
         style="fill:#ffffff;fill-opacity:1;fill-rule:nonzero;stroke:none"
         id="path56"
         inkscape:connector-curvature="0" /><path
         d="m 14.3647,8.8149 c 0.014,0.201 0.057,0.391 0.131,0.569 0.074,0.177 0.174,0.333 0.302,0.468 0.127,0.133 0.28,0.239 0.458,0.317 0.177,0.077 0.377,0.115 0.598,0.115 0.208,0 0.403,-0.038 0.584,-0.115 0.181,-0.078 0.337,-0.182 0.468,-0.312 0.13,-0.131 0.234,-0.287 0.312,-0.468 0.077,-0.181 0.122,-0.373 0.135,-0.574 l -2.988,0 z m 3.808,0.242 c -0.07,0.348 -0.198,0.67 -0.382,0.966 -0.185,0.294 -0.429,0.538 -0.735,0.729 -0.305,0.191 -0.689,0.287 -1.151,0.287 -0.356,0 -0.683,-0.067 -0.981,-0.202 -0.299,-0.134 -0.558,-0.321 -0.775,-0.563 -0.218,-0.241 -0.388,-0.528 -0.508,-0.86 -0.121,-0.332 -0.181,-0.693 -0.181,-1.082 0.013,-0.395 0.072,-0.761 0.176,-1.097 0.104,-0.335 0.26,-0.623 0.469,-0.865 0.208,-0.241 0.465,-0.43 0.771,-0.568 0.306,-0.137 0.667,-0.206 1.084,-0.206 0.592,0 1.082,0.151 1.472,0.452 0.39,0.302 0.642,0.742 0.756,1.318 l -0.855,0 c -0.074,-0.342 -0.228,-0.597 -0.463,-0.764 -0.234,-0.168 -0.529,-0.252 -0.885,-0.252 -0.282,0 -0.527,0.047 -0.735,0.141 -0.207,0.094 -0.379,0.22 -0.512,0.377 -0.135,0.158 -0.232,0.339 -0.292,0.544 -0.061,0.204 -0.088,0.421 -0.081,0.649 l 3.894,0 c 0.013,0.315 -0.016,0.647 -0.086,0.996"
         style="fill:#ffffff;fill-opacity:1;fill-rule:nonzero;stroke:none"
         id="path60"
         inkscape:connector-curvature="0" /><path
         d="m 22.2729,6.687 c -0.242,-0.225 -0.57,-0.337 -0.986,-0.337 -0.275,0 -0.508,0.054 -0.699,0.161 -0.191,0.107 -0.347,0.25 -0.468,0.428 -0.121,0.177 -0.21,0.38 -0.267,0.608 -0.057,0.228 -0.085,0.463 -0.085,0.704 0,0.262 0.026,0.516 0.08,0.76 0.054,0.245 0.143,0.461 0.267,0.649 0.124,0.188 0.29,0.339 0.498,0.453 0.208,0.114 0.466,0.171 0.775,0.171 0.355,0 0.642,-0.091 0.86,-0.272 0.218,-0.181 0.36,-0.436 0.427,-0.764 l 0.886,0 c -0.034,0.308 -0.113,0.575 -0.237,0.799 -0.124,0.225 -0.286,0.411 -0.488,0.559 -0.201,0.147 -0.431,0.256 -0.689,0.327 -0.258,0.07 -0.535,0.106 -0.83,0.106 -0.416,0 -0.776,-0.073 -1.082,-0.217 -0.305,-0.144 -0.56,-0.342 -0.764,-0.593 -0.205,-0.252 -0.357,-0.547 -0.458,-0.886 -0.1,-0.339 -0.151,-0.702 -0.151,-1.092 0,-0.388 0.052,-0.746 0.156,-1.071 0.104,-0.325 0.258,-0.605 0.463,-0.84 0.205,-0.235 0.459,-0.418 0.765,-0.548 0.305,-0.131 0.655,-0.196 1.051,-0.196 0.657,0 1.181,0.177 1.57,0.533 0.388,0.355 0.63,0.851 0.724,1.489 l -0.875,0 c -0.054,-0.396 -0.202,-0.706 -0.443,-0.931"
         style="fill:#ffffff;fill-opacity:1;fill-rule:nonzero;stroke:none"
         id="path64"
         inkscape:connector-curvature="0" /><path
         inkscape:connector-curvature="0"
         id="path66"
         style="fill:#ffffff;fill-opacity:1;fill-rule:nonzero;stroke:none"
         d="m 24.597,5.716 0.855,0 0,5.202 -0.855,0 0,-5.202 z" /><path
         inkscape:connector-curvature="0"
         id="path68"
         style="fill:#ffffff;fill-opacity:1;fill-rule:nonzero;stroke:none"
         d="m 24.597,11.854 0.855,0 0,1.046 -0.855,0 0,-1.046 z" /><path
         d="m 30.3369,8.2686 c -0.158,0.11 -0.339,0.199 -0.543,0.266 -0.205,0.067 -0.415,0.123 -0.629,0.17 -0.202,0.047 -0.403,0.092 -0.604,0.136 -0.201,0.044 -0.382,0.098 -0.543,0.162 -0.161,0.064 -0.294,0.143 -0.398,0.238 -0.104,0.095 -0.156,0.22 -0.156,0.375 0,0.128 0.034,0.236 0.101,0.324 0.067,0.088 0.154,0.157 0.262,0.208 0.107,0.05 0.226,0.086 0.357,0.106 0.131,0.02 0.259,0.031 0.387,0.031 0.141,0 0.28,-0.016 0.418,-0.046 0.137,-0.03 0.261,-0.079 0.372,-0.146 0.111,-0.067 0.205,-0.156 0.282,-0.266 0.077,-0.111 0.122,-0.25 0.135,-0.418 l 0.855,0 c -0.02,0.316 -0.087,0.579 -0.201,0.79 -0.114,0.211 -0.266,0.379 -0.457,0.503 -0.192,0.124 -0.413,0.212 -0.664,0.262 -0.252,0.05 -0.522,0.075 -0.81,0.075 -0.228,0 -0.458,-0.029 -0.689,-0.085 -0.232,-0.058 -0.44,-0.145 -0.624,-0.262 -0.185,-0.117 -0.336,-0.27 -0.453,-0.458 -0.117,-0.188 -0.176,-0.412 -0.176,-0.674 0,-0.248 0.049,-0.456 0.146,-0.624 0.097,-0.167 0.226,-0.305 0.387,-0.412 0.161,-0.108 0.342,-0.195 0.543,-0.262 0.202,-0.067 0.41,-0.124 0.624,-0.171 0.215,-0.047 0.424,-0.092 0.629,-0.135 0.204,-0.044 0.386,-0.1 0.543,-0.166 0.158,-0.068 0.285,-0.153 0.383,-0.257 0.097,-0.104 0.146,-0.24 0.146,-0.408 0,-0.161 -0.04,-0.293 -0.121,-0.397 -0.081,-0.104 -0.183,-0.183 -0.307,-0.236 -0.124,-0.055 -0.26,-0.091 -0.407,-0.111 -0.148,-0.02 -0.289,-0.03 -0.423,-0.03 -0.175,0 -0.344,0.016 -0.508,0.05 -0.165,0.034 -0.312,0.089 -0.443,0.166 -0.131,0.077 -0.236,0.179 -0.317,0.307 -0.08,0.127 -0.124,0.288 -0.131,0.483 l -0.855,0 c 0.014,-0.322 0.081,-0.596 0.201,-0.82 0.121,-0.225 0.282,-0.406 0.483,-0.543 0.202,-0.138 0.431,-0.239 0.689,-0.303 0.259,-0.063 0.536,-0.095 0.83,-0.095 0.262,0 0.525,0.027 0.79,0.08 0.265,0.053 0.503,0.144 0.715,0.271 0.211,0.127 0.382,0.296 0.513,0.507 0.13,0.21 0.196,0.469 0.196,0.777 0,0.247 -0.049,0.455 -0.146,0.621 -0.097,0.168 -0.225,0.307 -0.382,0.417"
         style="fill:#ffffff;fill-opacity:1;fill-rule:nonzero;stroke:none"
         id="path72"
         inkscape:connector-curvature="0" /><path
         inkscape:connector-curvature="0"
         id="path74"
         style="fill:#ffffff;fill-opacity:1;fill-rule:nonzero;stroke:none"
         d="m 31.861,11.854 0.855,0 0,1.046 -0.855,0 0,-1.046 z" /><path
         inkscape:connector-curvature="0"
         id="path76"
         style="fill:#ffffff;fill-opacity:1;fill-rule:nonzero;stroke:none"
         d="m 31.861,5.716 0.855,0 0,5.202 -0.855,0 0,-5.202 z" /><path
         d="m 37.7817,7.4722 c -0.084,-0.245 -0.199,-0.45 -0.347,-0.614 -0.147,-0.164 -0.321,-0.29 -0.518,-0.377 -0.198,-0.088 -0.407,-0.131 -0.629,-0.131 -0.221,0 -0.431,0.043 -0.629,0.131 -0.197,0.087 -0.37,0.213 -0.518,0.377 -0.148,0.164 -0.263,0.369 -0.347,0.614 -0.084,0.245 -0.126,0.524 -0.126,0.84 0,0.315 0.042,0.595 0.126,0.84 0.084,0.245 0.199,0.451 0.347,0.619 0.148,0.167 0.321,0.295 0.518,0.382 0.198,0.087 0.408,0.131 0.629,0.131 0.222,0 0.431,-0.044 0.629,-0.131 0.197,-0.087 0.371,-0.215 0.518,-0.382 0.148,-0.168 0.263,-0.374 0.347,-0.619 0.084,-0.245 0.126,-0.525 0.126,-0.84 0,-0.316 -0.042,-0.595 -0.126,-0.84 m 0.388,2.777 c -0.215,0.244 -0.48,0.437 -0.795,0.578 -0.316,0.141 -0.678,0.211 -1.087,0.211 -0.416,0 -0.779,-0.07 -1.092,-0.211 -0.311,-0.141 -0.575,-0.334 -0.789,-0.578 -0.215,-0.245 -0.376,-0.533 -0.483,-0.865 -0.107,-0.332 -0.161,-0.69 -0.161,-1.072 0,-0.382 0.054,-0.738 0.161,-1.067 0.107,-0.328 0.268,-0.615 0.483,-0.86 0.214,-0.245 0.478,-0.437 0.789,-0.579 0.313,-0.14 0.676,-0.21 1.092,-0.21 0.409,0 0.771,0.07 1.087,0.21 0.315,0.142 0.58,0.334 0.795,0.579 0.214,0.245 0.376,0.532 0.483,0.86 0.107,0.329 0.16,0.685 0.16,1.067 0,0.382 -0.053,0.74 -0.16,1.072 -0.107,0.332 -0.269,0.62 -0.483,0.865"
         style="fill:#ffffff;fill-opacity:1;fill-rule:nonzero;stroke:none"
         id="path80"
         inkscape:connector-curvature="0" /><path
         d="m 43.7427,10.5054 c -0.141,0.167 -0.325,0.298 -0.553,0.393 -0.228,0.093 -0.513,0.14 -0.855,0.14 -0.375,0 -0.706,-0.077 -0.991,-0.231 -0.286,-0.155 -0.519,-0.392 -0.7,-0.715 l -0.02,0 0,0.826 -0.805,0 0,-5.202 0.856,0 0,2.938 c 0,0.234 0.031,0.451 0.095,0.649 0.064,0.198 0.16,0.37 0.287,0.518 0.127,0.147 0.287,0.262 0.478,0.342 0.19,0.08 0.417,0.121 0.679,0.121 0.329,0 0.588,-0.094 0.775,-0.282 0.188,-0.188 0.281,-0.443 0.281,-0.765 l 0,-3.521 0.856,0 0,3.421 c 0,0.282 -0.029,0.538 -0.086,0.769 -0.057,0.232 -0.156,0.431 -0.297,0.599"
         style="fill:#ffffff;fill-opacity:1;fill-rule:nonzero;stroke:none"
         id="path84"
         inkscape:connector-curvature="0" /><path
         d="m 52.9985,9.1572 c -0.215,0.154 -0.459,0.277 -0.734,0.367 -0.276,0.091 -0.557,0.17 -0.845,0.237 -0.288,0.066 -0.57,0.129 -0.845,0.186 -0.275,0.057 -0.521,0.129 -0.74,0.216 -0.218,0.087 -0.393,0.2 -0.524,0.337 -0.13,0.137 -0.195,0.317 -0.195,0.538 0,0.235 0.045,0.432 0.135,0.589 0.092,0.157 0.212,0.283 0.363,0.377 0.151,0.094 0.323,0.161 0.518,0.201 0.195,0.041 0.392,0.061 0.594,0.061 0.496,0 0.904,-0.116 1.222,-0.347 0.319,-0.232 0.504,-0.606 0.559,-1.122 l 0.905,0 c -0.014,0.396 -0.091,0.736 -0.231,1.021 -0.141,0.285 -0.329,0.522 -0.564,0.71 -0.235,0.187 -0.51,0.325 -0.825,0.412 -0.315,0.087 -0.657,0.131 -1.026,0.131 -0.33,0 -0.65,-0.042 -0.96,-0.126 -0.313,-0.084 -0.591,-0.211 -0.836,-0.382 -0.244,-0.172 -0.442,-0.389 -0.588,-0.655 -0.149,-0.264 -0.222,-0.578 -0.222,-0.94 0,-0.329 0.066,-0.601 0.196,-0.815 0.131,-0.215 0.305,-0.392 0.524,-0.533 0.217,-0.141 0.464,-0.254 0.738,-0.338 0.276,-0.083 0.557,-0.155 0.846,-0.216 0.289,-0.06 0.57,-0.122 0.846,-0.186 0.274,-0.063 0.519,-0.144 0.734,-0.241 0.215,-0.098 0.387,-0.223 0.517,-0.378 0.131,-0.154 0.197,-0.355 0.197,-0.603 0,-0.262 -0.054,-0.477 -0.161,-0.644 -0.108,-0.168 -0.248,-0.3 -0.422,-0.398 -0.175,-0.097 -0.371,-0.166 -0.589,-0.206 -0.218,-0.04 -0.435,-0.06 -0.65,-0.06 -0.275,0 -0.538,0.034 -0.789,0.1 -0.252,0.067 -0.472,0.171 -0.664,0.312 -0.191,0.141 -0.345,0.321 -0.463,0.539 -0.117,0.218 -0.175,0.478 -0.175,0.779 l -0.907,0 c 0,-0.436 0.08,-0.813 0.237,-1.131 0.158,-0.319 0.373,-0.583 0.644,-0.79 0.272,-0.208 0.586,-0.362 0.946,-0.463 0.359,-0.101 0.74,-0.151 1.142,-0.151 0.328,0 0.658,0.04 0.99,0.121 0.332,0.08 0.633,0.206 0.901,0.377 0.268,0.171 0.488,0.392 0.659,0.664 0.171,0.272 0.257,0.599 0.257,0.981 0,0.349 -0.066,0.642 -0.196,0.881 -0.131,0.237 -0.304,0.434 -0.519,0.588"
         style="fill:#ffffff;fill-opacity:1;fill-rule:nonzero;stroke:none"
         id="path88"
         inkscape:connector-curvature="0" /><path
         d="m 57.8579,6.687 c -0.241,-0.225 -0.57,-0.337 -0.985,-0.337 -0.276,0 -0.509,0.054 -0.7,0.161 -0.191,0.107 -0.346,0.25 -0.467,0.428 -0.121,0.177 -0.21,0.38 -0.268,0.608 -0.057,0.228 -0.085,0.463 -0.085,0.704 0,0.262 0.026,0.516 0.081,0.76 0.053,0.245 0.143,0.461 0.266,0.649 0.125,0.188 0.291,0.339 0.498,0.453 0.209,0.114 0.467,0.171 0.775,0.171 0.356,0 0.643,-0.091 0.86,-0.272 0.218,-0.181 0.361,-0.436 0.427,-0.764 l 0.886,0 c -0.034,0.308 -0.112,0.575 -0.236,0.799 -0.124,0.225 -0.286,0.411 -0.488,0.559 -0.201,0.147 -0.431,0.256 -0.689,0.327 -0.259,0.07 -0.535,0.106 -0.83,0.106 -0.416,0 -0.777,-0.073 -1.082,-0.217 -0.305,-0.144 -0.561,-0.342 -0.765,-0.593 -0.204,-0.252 -0.356,-0.547 -0.458,-0.886 -0.099,-0.339 -0.15,-0.702 -0.15,-1.092 0,-0.388 0.052,-0.746 0.156,-1.071 0.104,-0.325 0.258,-0.605 0.463,-0.84 0.204,-0.235 0.459,-0.418 0.764,-0.548 0.305,-0.131 0.656,-0.196 1.051,-0.196 0.658,0 1.181,0.177 1.57,0.533 0.388,0.355 0.631,0.851 0.724,1.489 l -0.875,0 c -0.054,-0.396 -0.201,-0.706 -0.443,-0.931"
         style="fill:#ffffff;fill-opacity:1;fill-rule:nonzero;stroke:none"
         id="path92"
         inkscape:connector-curvature="0" /><path
         inkscape:connector-curvature="0"
         id="path94"
         style="fill:#ffffff;fill-opacity:1;fill-rule:nonzero;stroke:none"
         d="m 60.182,11.854 0.855,0 0,1.046 -0.855,0 0,-1.046 z" /><path
         inkscape:connector-curvature="0"
         id="path96"
         style="fill:#ffffff;fill-opacity:1;fill-rule:nonzero;stroke:none"
         d="m 60.182,5.716 0.855,0 0,5.202 -0.855,0 0,-5.202 z" /><path
         d="m 62.9888,8.8149 c 0.014,0.201 0.058,0.391 0.131,0.569 0.074,0.177 0.175,0.333 0.303,0.468 0.127,0.133 0.279,0.239 0.457,0.317 0.177,0.077 0.377,0.115 0.599,0.115 0.207,0 0.403,-0.038 0.583,-0.115 0.181,-0.078 0.337,-0.182 0.468,-0.312 0.131,-0.131 0.234,-0.287 0.313,-0.468 0.076,-0.181 0.121,-0.373 0.134,-0.574 l -2.988,0 z m 3.809,0.242 c -0.071,0.348 -0.198,0.67 -0.383,0.966 -0.184,0.294 -0.429,0.538 -0.735,0.729 -0.304,0.191 -0.688,0.287 -1.151,0.287 -0.355,0 -0.683,-0.067 -0.981,-0.202 -0.299,-0.134 -0.557,-0.321 -0.775,-0.563 -0.218,-0.241 -0.388,-0.528 -0.508,-0.86 -0.121,-0.332 -0.18,-0.693 -0.18,-1.082 0.012,-0.395 0.072,-0.761 0.175,-1.097 0.104,-0.335 0.26,-0.623 0.469,-0.865 0.209,-0.241 0.465,-0.43 0.772,-0.568 0.305,-0.137 0.667,-0.206 1.084,-0.206 0.592,0 1.082,0.151 1.472,0.452 0.389,0.302 0.641,0.742 0.756,1.318 l -0.855,0 c -0.074,-0.342 -0.229,-0.597 -0.463,-0.764 -0.235,-0.168 -0.529,-0.252 -0.885,-0.252 -0.282,0 -0.527,0.047 -0.735,0.141 -0.208,0.094 -0.379,0.22 -0.513,0.377 -0.135,0.158 -0.231,0.339 -0.292,0.544 -0.06,0.204 -0.087,0.421 -0.081,0.649 l 3.895,0 c 0.013,0.315 -0.016,0.647 -0.086,0.996"
         style="fill:#ffffff;fill-opacity:1;fill-rule:nonzero;stroke:none"
         id="path100"
         inkscape:connector-curvature="0" /><path
         d="m 71.6914,10.5054 c -0.141,0.167 -0.324,0.298 -0.553,0.393 -0.228,0.093 -0.513,0.14 -0.855,0.14 -0.375,0 -0.706,-0.077 -0.991,-0.231 -0.285,-0.155 -0.518,-0.392 -0.699,-0.715 l -0.021,0 0,0.826 -0.804,0 0,-5.202 0.855,0 0,2.938 c 0,0.234 0.031,0.451 0.096,0.649 0.063,0.198 0.159,0.37 0.287,0.518 0.127,0.147 0.286,0.262 0.477,0.342 0.191,0.08 0.417,0.121 0.679,0.121 0.33,0 0.588,-0.094 0.775,-0.282 0.188,-0.188 0.281,-0.443 0.281,-0.765 l 0,-3.521 0.856,0 0,3.421 c 0,0.282 -0.029,0.538 -0.086,0.769 -0.057,0.232 -0.156,0.431 -0.297,0.599"
         style="fill:#ffffff;fill-opacity:1;fill-rule:nonzero;stroke:none"
         id="path104"
         inkscape:connector-curvature="0" /><path
         d="m 76.4902,6.687 c -0.24,-0.225 -0.57,-0.337 -0.984,-0.337 -0.276,0 -0.51,0.054 -0.7,0.161 -0.191,0.107 -0.347,0.25 -0.468,0.428 -0.121,0.177 -0.209,0.38 -0.268,0.608 -0.057,0.228 -0.084,0.463 -0.084,0.704 0,0.262 0.025,0.516 0.08,0.76 0.053,0.245 0.143,0.461 0.266,0.649 0.125,0.188 0.291,0.339 0.498,0.453 0.209,0.114 0.467,0.171 0.775,0.171 0.356,0 0.643,-0.091 0.86,-0.272 0.218,-0.181 0.361,-0.436 0.427,-0.764 l 0.887,0 c -0.035,0.308 -0.113,0.575 -0.236,0.799 -0.125,0.225 -0.287,0.411 -0.489,0.559 -0.201,0.147 -0.431,0.256 -0.689,0.327 -0.258,0.07 -0.535,0.106 -0.83,0.106 -0.416,0 -0.777,-0.073 -1.082,-0.217 -0.305,-0.144 -0.561,-0.342 -0.764,-0.593 -0.205,-0.252 -0.357,-0.547 -0.459,-0.886 -0.099,-0.339 -0.15,-0.702 -0.15,-1.092 0,-0.388 0.053,-0.746 0.156,-1.071 0.104,-0.325 0.258,-0.605 0.463,-0.84 0.205,-0.235 0.459,-0.418 0.764,-0.548 0.306,-0.131 0.656,-0.196 1.052,-0.196 0.657,0 1.18,0.177 1.569,0.533 0.388,0.355 0.631,0.851 0.724,1.489 l -0.875,0 c -0.054,-0.396 -0.201,-0.706 -0.443,-0.931"
         style="fill:#ffffff;fill-opacity:1;fill-rule:nonzero;stroke:none"
         id="path108"
         inkscape:connector-curvature="0" /><path
         d="m 79.3887,8.8149 c 0.014,0.201 0.057,0.391 0.131,0.569 0.074,0.177 0.174,0.333 0.301,0.468 0.129,0.133 0.281,0.239 0.459,0.317 0.177,0.077 0.377,0.115 0.597,0.115 0.209,0 0.403,-0.038 0.584,-0.115 0.182,-0.078 0.338,-0.182 0.469,-0.312 0.131,-0.131 0.234,-0.287 0.311,-0.468 0.078,-0.181 0.123,-0.373 0.136,-0.574 l -2.988,0 z m 3.809,0.242 c -0.071,0.348 -0.2,0.67 -0.383,0.966 -0.186,0.294 -0.43,0.538 -0.735,0.729 -0.304,0.191 -0.689,0.287 -1.152,0.287 -0.355,0 -0.682,-0.067 -0.98,-0.202 -0.299,-0.134 -0.557,-0.321 -0.776,-0.563 -0.217,-0.241 -0.387,-0.528 -0.508,-0.86 -0.121,-0.332 -0.181,-0.693 -0.181,-1.082 0.013,-0.395 0.072,-0.761 0.177,-1.097 0.104,-0.335 0.26,-0.623 0.469,-0.865 0.207,-0.241 0.465,-0.43 0.772,-0.568 0.304,-0.137 0.666,-0.206 1.084,-0.206 0.59,0 1.082,0.151 1.47,0.452 0.391,0.302 0.643,0.742 0.756,1.318 l -0.853,0 c -0.074,-0.342 -0.229,-0.597 -0.463,-0.764 -0.236,-0.168 -0.531,-0.252 -0.887,-0.252 -0.281,0 -0.525,0.047 -0.734,0.141 -0.207,0.094 -0.379,0.22 -0.512,0.377 -0.135,0.158 -0.232,0.339 -0.293,0.544 -0.06,0.204 -0.088,0.421 -0.08,0.649 l 3.893,0 c 0.013,0.315 -0.014,0.647 -0.084,0.996"
         style="fill:#ffffff;fill-opacity:1;fill-rule:nonzero;stroke:none"
         id="path112"
         inkscape:connector-curvature="0" /><path
         d="m 87.7246,8.2686 c -0.158,0.11 -0.34,0.199 -0.543,0.266 -0.205,0.067 -0.414,0.123 -0.629,0.17 -0.201,0.047 -0.402,0.092 -0.603,0.136 -0.202,0.044 -0.383,0.098 -0.545,0.162 -0.16,0.064 -0.293,0.143 -0.397,0.238 -0.103,0.095 -0.156,0.22 -0.156,0.375 0,0.128 0.033,0.236 0.102,0.324 0.066,0.088 0.154,0.157 0.261,0.208 0.106,0.05 0.225,0.086 0.356,0.106 0.131,0.02 0.259,0.031 0.388,0.031 0.141,0 0.28,-0.016 0.418,-0.046 0.137,-0.03 0.26,-0.079 0.371,-0.146 0.112,-0.067 0.206,-0.156 0.282,-0.266 0.078,-0.111 0.123,-0.25 0.136,-0.418 l 0.856,0 c -0.022,0.316 -0.088,0.579 -0.201,0.79 -0.116,0.211 -0.268,0.379 -0.459,0.503 -0.192,0.124 -0.412,0.212 -0.664,0.262 -0.25,0.05 -0.522,0.075 -0.809,0.075 -0.228,0 -0.459,-0.029 -0.689,-0.085 -0.233,-0.058 -0.44,-0.145 -0.625,-0.262 -0.184,-0.117 -0.334,-0.27 -0.452,-0.458 -0.117,-0.188 -0.177,-0.412 -0.177,-0.674 0,-0.248 0.049,-0.456 0.146,-0.624 0.098,-0.167 0.227,-0.305 0.387,-0.412 0.162,-0.108 0.344,-0.195 0.545,-0.262 0.201,-0.067 0.408,-0.124 0.623,-0.171 0.215,-0.047 0.424,-0.092 0.629,-0.135 0.205,-0.044 0.385,-0.1 0.543,-0.166 0.158,-0.068 0.285,-0.153 0.383,-0.257 0.097,-0.104 0.146,-0.24 0.146,-0.408 0,-0.161 -0.041,-0.293 -0.121,-0.397 -0.08,-0.104 -0.184,-0.183 -0.307,-0.236 -0.125,-0.055 -0.259,-0.091 -0.408,-0.111 -0.148,-0.02 -0.289,-0.03 -0.422,-0.03 -0.176,0 -0.344,0.016 -0.508,0.05 -0.166,0.034 -0.312,0.089 -0.443,0.166 -0.131,0.077 -0.236,0.179 -0.316,0.307 -0.082,0.127 -0.125,0.288 -0.131,0.483 l -0.856,0 c 0.014,-0.322 0.08,-0.596 0.201,-0.82 0.122,-0.225 0.282,-0.406 0.483,-0.543 0.201,-0.138 0.432,-0.239 0.689,-0.303 0.258,-0.063 0.536,-0.095 0.83,-0.095 0.262,0 0.526,0.027 0.79,0.08 0.265,0.053 0.503,0.144 0.714,0.271 0.211,0.127 0.383,0.296 0.514,0.507 0.131,0.21 0.195,0.469 0.195,0.777 0,0.247 -0.048,0.455 -0.144,0.621 -0.098,0.168 -0.227,0.307 -0.383,0.417"
         style="fill:#ffffff;fill-opacity:1;fill-rule:nonzero;stroke:none"
         id="path116"
         inkscape:connector-curvature="0" /><path
         d="m 94.8379,6.5815 c -0.258,-0.154 -0.553,-0.231 -0.881,-0.231 -0.174,0 -0.344,0.03 -0.508,0.09 -0.164,0.06 -0.31,0.142 -0.437,0.246 -0.127,0.104 -0.231,0.232 -0.307,0.383 -0.078,0.151 -0.117,0.317 -0.117,0.498 0,0.215 0.035,0.401 0.102,0.558 0.066,0.158 0.158,0.301 0.271,0.428 0.113,0.127 0.246,0.241 0.398,0.342 0.151,0.101 0.309,0.198 0.477,0.292 l 1.65,-1.982 c -0.173,-0.262 -0.39,-0.47 -0.648,-0.624 m -1.152,5.377 c 0.173,0.124 0.361,0.187 0.562,0.187 0.256,0 0.457,-0.076 0.606,-0.227 0.146,-0.15 0.22,-0.33 0.22,-0.538 0,-0.154 -0.031,-0.293 -0.091,-0.417 -0.059,-0.125 -0.137,-0.237 -0.231,-0.338 -0.094,-0.1 -0.197,-0.19 -0.312,-0.271 -0.114,-0.081 -0.221,-0.154 -0.323,-0.221 l -0.24,0.302 c -0.08,0.1 -0.154,0.202 -0.221,0.306 -0.068,0.104 -0.123,0.21 -0.166,0.317 -0.045,0.107 -0.066,0.215 -0.066,0.322 0,0.262 0.088,0.454 0.262,0.578 m 2.947,-4.195 c 0.055,0.124 0.1,0.25 0.137,0.378 0.037,0.127 0.066,0.266 0.089,0.417 0.024,0.151 0.045,0.334 0.067,0.548 l -0.817,0 c -0.019,-0.382 -0.095,-0.754 -0.23,-1.116 l -1.299,1.579 c 0.176,0.101 0.344,0.213 0.504,0.337 0.16,0.124 0.305,0.263 0.432,0.418 0.129,0.154 0.228,0.323 0.302,0.508 0.075,0.184 0.112,0.384 0.112,0.599 0,0.241 -0.049,0.454 -0.147,0.638 -0.097,0.185 -0.226,0.339 -0.386,0.463 -0.163,0.124 -0.348,0.216 -0.559,0.277 -0.211,0.06 -0.428,0.09 -0.648,0.09 -0.262,0 -0.495,-0.04 -0.696,-0.12 -0.201,-0.081 -0.371,-0.19 -0.508,-0.327 -0.136,-0.138 -0.242,-0.296 -0.312,-0.473 -0.07,-0.178 -0.106,-0.364 -0.106,-0.559 0,-0.181 0.022,-0.345 0.067,-0.493 0.043,-0.147 0.103,-0.285 0.18,-0.412 0.078,-0.127 0.164,-0.255 0.257,-0.382 0.094,-0.128 0.192,-0.262 0.291,-0.403 -0.228,-0.121 -0.443,-0.25 -0.648,-0.387 -0.205,-0.138 -0.383,-0.292 -0.533,-0.463 -0.151,-0.171 -0.272,-0.364 -0.364,-0.578 -0.089,-0.215 -0.134,-0.463 -0.134,-0.745 0,-0.148 0.025,-0.332 0.076,-0.554 0.049,-0.221 0.154,-0.436 0.316,-0.643 0.16,-0.208 0.389,-0.388 0.684,-0.539 0.295,-0.151 0.683,-0.226 1.168,-0.226 0.193,0 0.39,0.022 0.588,0.066 0.197,0.043 0.385,0.107 0.562,0.191 0.178,0.083 0.344,0.189 0.494,0.316 0.151,0.128 0.28,0.275 0.387,0.443 l 0.766,-0.895 1.115,0 -1.398,1.619 c 0.074,0.162 0.138,0.304 0.191,0.428"
         style="fill:#ffffff;fill-opacity:1;fill-rule:nonzero;stroke:none"
         id="path120"
         inkscape:connector-curvature="0" /><path
         d="m 105.9199,9.1572 c -0.215,0.154 -0.459,0.277 -0.734,0.367 -0.276,0.091 -0.557,0.17 -0.846,0.237 -0.289,0.066 -0.57,0.129 -0.846,0.186 -0.275,0.057 -0.521,0.129 -0.738,0.216 -0.219,0.087 -0.393,0.2 -0.524,0.337 -0.13,0.137 -0.197,0.317 -0.197,0.538 0,0.235 0.047,0.432 0.137,0.589 0.09,0.157 0.211,0.283 0.361,0.377 0.153,0.094 0.324,0.161 0.52,0.201 0.193,0.041 0.392,0.061 0.594,0.061 0.496,0 0.902,-0.116 1.222,-0.347 0.319,-0.232 0.504,-0.606 0.557,-1.122 l 0.906,0 c -0.014,0.396 -0.09,0.736 -0.23,1.021 -0.143,0.285 -0.33,0.522 -0.565,0.71 -0.234,0.187 -0.51,0.325 -0.824,0.412 -0.316,0.087 -0.658,0.131 -1.027,0.131 -0.329,0 -0.649,-0.042 -0.961,-0.126 -0.311,-0.084 -0.59,-0.211 -0.834,-0.382 -0.246,-0.172 -0.442,-0.389 -0.59,-0.655 -0.147,-0.264 -0.221,-0.578 -0.221,-0.94 0,-0.329 0.067,-0.601 0.195,-0.815 0.131,-0.215 0.307,-0.392 0.524,-0.533 0.219,-0.141 0.465,-0.254 0.74,-0.338 0.276,-0.083 0.557,-0.155 0.846,-0.216 0.287,-0.06 0.57,-0.122 0.844,-0.186 0.275,-0.063 0.519,-0.144 0.734,-0.241 0.215,-0.098 0.389,-0.223 0.519,-0.378 0.131,-0.154 0.196,-0.355 0.196,-0.603 0,-0.262 -0.053,-0.477 -0.16,-0.644 -0.108,-0.168 -0.248,-0.3 -0.424,-0.398 -0.174,-0.097 -0.369,-0.166 -0.588,-0.206 -0.219,-0.04 -0.434,-0.06 -0.649,-0.06 -0.275,0 -0.539,0.034 -0.791,0.1 -0.25,0.067 -0.472,0.171 -0.664,0.312 -0.189,0.141 -0.343,0.321 -0.462,0.539 -0.118,0.218 -0.176,0.478 -0.176,0.779 l -0.905,0 c 0,-0.436 0.079,-0.813 0.237,-1.131 0.156,-0.319 0.371,-0.583 0.642,-0.79 0.274,-0.208 0.588,-0.362 0.948,-0.463 0.357,-0.101 0.738,-0.151 1.14,-0.151 0.33,0 0.66,0.04 0.992,0.121 0.332,0.08 0.631,0.206 0.901,0.377 0.267,0.171 0.488,0.392 0.658,0.664 0.172,0.272 0.258,0.599 0.258,0.981 0,0.349 -0.067,0.642 -0.197,0.881 -0.131,0.237 -0.303,0.434 -0.518,0.588"
         style="fill:#ffffff;fill-opacity:1;fill-rule:nonzero;stroke:none"
         id="path124"
         inkscape:connector-curvature="0" /><path
         d="m 109.5918,6.6621 -0.02,0 -1.519,4.256 -0.967,0 2.063,-5.172 -0.352,-0.885 c -0.08,-0.154 -0.174,-0.272 -0.281,-0.352 -0.108,-0.08 -0.248,-0.121 -0.424,-0.121 -0.086,0 -0.172,0.014 -0.256,0.041 -0.084,0.026 -0.166,0.053 -0.246,0.08 l 0,-0.785 c 0.094,-0.033 0.191,-0.057 0.291,-0.07 0.102,-0.013 0.201,-0.02 0.303,-0.02 0.187,0 0.355,0.025 0.502,0.075 0.148,0.05 0.279,0.131 0.392,0.242 0.116,0.11 0.221,0.253 0.319,0.427 0.095,0.175 0.195,0.389 0.297,0.644 l 2.263,5.896 -0.906,0 -1.459,-4.256 z"
         style="fill:#ffffff;fill-opacity:1;fill-rule:nonzero;stroke:none"
         id="path128"
         inkscape:connector-curvature="0" /><path
         d="m 116.2383,8.2686 c -0.158,0.11 -0.34,0.199 -0.545,0.266 -0.203,0.067 -0.414,0.123 -0.629,0.17 -0.201,0.047 -0.402,0.092 -0.603,0.136 -0.202,0.044 -0.381,0.098 -0.543,0.162 -0.16,0.064 -0.293,0.143 -0.397,0.238 -0.105,0.095 -0.156,0.22 -0.156,0.375 0,0.128 0.033,0.236 0.1,0.324 0.068,0.088 0.154,0.157 0.261,0.208 0.108,0.05 0.227,0.086 0.358,0.106 0.131,0.02 0.259,0.031 0.386,0.031 0.143,0 0.282,-0.016 0.418,-0.046 0.139,-0.03 0.262,-0.079 0.373,-0.146 0.112,-0.067 0.206,-0.156 0.282,-0.266 0.078,-0.111 0.123,-0.25 0.136,-0.418 l 0.854,0 c -0.02,0.316 -0.086,0.579 -0.201,0.79 -0.114,0.211 -0.266,0.379 -0.457,0.503 -0.192,0.124 -0.412,0.212 -0.664,0.262 -0.252,0.05 -0.522,0.075 -0.811,0.075 -0.226,0 -0.457,-0.029 -0.687,-0.085 -0.233,-0.058 -0.44,-0.145 -0.625,-0.262 -0.184,-0.117 -0.336,-0.27 -0.454,-0.458 -0.117,-0.188 -0.175,-0.412 -0.175,-0.674 0,-0.248 0.049,-0.456 0.146,-0.624 0.098,-0.167 0.227,-0.305 0.387,-0.412 0.162,-0.108 0.342,-0.195 0.543,-0.262 0.201,-0.067 0.41,-0.124 0.625,-0.171 0.215,-0.047 0.424,-0.092 0.629,-0.135 0.203,-0.044 0.385,-0.1 0.543,-0.166 0.158,-0.068 0.285,-0.153 0.383,-0.257 0.095,-0.104 0.144,-0.24 0.144,-0.408 0,-0.161 -0.039,-0.293 -0.119,-0.397 -0.082,-0.104 -0.184,-0.183 -0.309,-0.236 -0.123,-0.055 -0.259,-0.091 -0.406,-0.111 -0.148,-0.02 -0.289,-0.03 -0.424,-0.03 -0.174,0 -0.343,0.016 -0.508,0.05 -0.164,0.034 -0.31,0.089 -0.441,0.166 -0.131,0.077 -0.236,0.179 -0.318,0.307 -0.08,0.127 -0.123,0.288 -0.131,0.483 l -0.854,0 c 0.012,-0.322 0.08,-0.596 0.201,-0.82 0.12,-0.225 0.282,-0.406 0.483,-0.543 0.201,-0.138 0.43,-0.239 0.689,-0.303 0.258,-0.063 0.536,-0.095 0.83,-0.095 0.262,0 0.524,0.027 0.79,0.08 0.265,0.053 0.503,0.144 0.714,0.271 0.211,0.127 0.383,0.296 0.514,0.507 0.129,0.21 0.195,0.469 0.195,0.777 0,0.247 -0.048,0.455 -0.146,0.621 -0.098,0.168 -0.225,0.307 -0.381,0.417"
         style="fill:#ffffff;fill-opacity:1;fill-rule:nonzero;stroke:none"
         id="path132"
         inkscape:connector-curvature="0" /><path
         d="m 118.8984,12.4775 -0.855,0 0,-1.56 -0.885,0 0,-0.754 0.885,0 0,-3.311 c 0,-0.241 0.023,-0.436 0.07,-0.583 0.047,-0.147 0.119,-0.261 0.217,-0.342 0.097,-0.08 0.224,-0.136 0.382,-0.166 0.159,-0.03 0.348,-0.045 0.569,-0.045 l 0.654,0 0,0.754 -0.392,0 c -0.135,0 -0.245,0.006 -0.329,0.015 -0.084,0.011 -0.148,0.032 -0.195,0.066 -0.047,0.033 -0.078,0.08 -0.096,0.141 -0.017,0.06 -0.025,0.14 -0.025,0.241 l 0,3.23 1.037,0 0,0.754 -1.037,0 0,1.56 z"
         style="fill:#ffffff;fill-opacity:1;fill-rule:nonzero;stroke:none"
         id="path136"
         inkscape:connector-curvature="0" /><path
         d="m 121.5039,8.8149 c 0.014,0.201 0.057,0.391 0.131,0.569 0.074,0.177 0.174,0.333 0.303,0.468 0.127,0.133 0.279,0.239 0.457,0.317 0.177,0.077 0.377,0.115 0.599,0.115 0.207,0 0.403,-0.038 0.582,-0.115 0.182,-0.078 0.338,-0.182 0.469,-0.312 0.131,-0.131 0.234,-0.287 0.313,-0.468 0.076,-0.181 0.121,-0.373 0.134,-0.574 l -2.988,0 z m 3.809,0.242 c -0.071,0.348 -0.198,0.67 -0.383,0.966 -0.184,0.294 -0.43,0.538 -0.735,0.729 -0.304,0.191 -0.689,0.287 -1.152,0.287 -0.355,0 -0.682,-0.067 -0.98,-0.202 -0.299,-0.134 -0.557,-0.321 -0.776,-0.563 -0.217,-0.241 -0.387,-0.528 -0.508,-0.86 -0.121,-0.332 -0.179,-0.693 -0.179,-1.082 0.011,-0.395 0.072,-0.761 0.175,-1.097 0.104,-0.335 0.26,-0.623 0.469,-0.865 0.209,-0.241 0.465,-0.43 0.772,-0.568 0.304,-0.137 0.666,-0.206 1.084,-0.206 0.592,0 1.082,0.151 1.472,0.452 0.389,0.302 0.641,0.742 0.756,1.318 l -0.855,0 c -0.074,-0.342 -0.229,-0.597 -0.463,-0.764 -0.235,-0.168 -0.529,-0.252 -0.885,-0.252 -0.283,0 -0.527,0.047 -0.736,0.141 -0.207,0.094 -0.379,0.22 -0.512,0.377 -0.135,0.158 -0.232,0.339 -0.293,0.544 -0.06,0.204 -0.086,0.421 -0.08,0.649 l 3.895,0 c 0.013,0.315 -0.016,0.647 -0.086,0.996"
         style="fill:#ffffff;fill-opacity:1;fill-rule:nonzero;stroke:none"
         id="path140"
         inkscape:connector-curvature="0" /><path
         d="m 133.0996,10.6865 c -0.15,0.121 -0.332,0.209 -0.543,0.267 -0.211,0.056 -0.447,0.085 -0.709,0.085 -0.336,0 -0.648,-0.077 -0.936,-0.231 -0.289,-0.155 -0.521,-0.372 -0.695,-0.654 -0.107,0.322 -0.291,0.55 -0.553,0.684 -0.261,0.134 -0.552,0.201 -0.875,0.201 -0.732,0 -1.291,-0.295 -1.681,-0.885 l -0.02,0 0,0.764 -0.804,0 0,-5.201 0.855,0 0,3.24 c 0,0.1 0.025,0.226 0.076,0.377 0.049,0.151 0.131,0.296 0.24,0.437 0.112,0.141 0.254,0.262 0.428,0.363 0.174,0.1 0.389,0.151 0.645,0.151 0.187,0 0.345,-0.029 0.472,-0.086 0.127,-0.057 0.229,-0.137 0.301,-0.241 0.074,-0.104 0.127,-0.227 0.156,-0.368 0.032,-0.141 0.045,-0.295 0.045,-0.463 l 0,-3.41 0.856,0 0,3.24 c 0,0.402 0.123,0.724 0.367,0.965 0.246,0.242 0.576,0.363 0.992,0.363 0.207,0 0.377,-0.031 0.508,-0.091 0.131,-0.06 0.232,-0.143 0.307,-0.247 0.074,-0.104 0.123,-0.226 0.15,-0.367 0.027,-0.141 0.041,-0.291 0.041,-0.453 l 0,-3.41 0.856,0 0,3.813 c 0,0.268 -0.043,0.498 -0.127,0.689 -0.084,0.191 -0.202,0.347 -0.352,0.468"
         style="fill:#ffffff;fill-opacity:1;fill-rule:nonzero;stroke:none"
         id="path144"
         inkscape:connector-curvature="0" /><path
         d="m 138.8047,7.8521 c -0.098,0.167 -0.225,0.306 -0.383,0.417 -0.158,0.11 -0.338,0.198 -0.543,0.265 -0.205,0.067 -0.414,0.124 -0.629,0.171 -0.201,0.046 -0.402,0.092 -0.603,0.136 -0.201,0.044 -0.383,0.097 -0.543,0.162 -0.162,0.064 -0.295,0.143 -0.399,0.238 -0.103,0.094 -0.156,0.219 -0.156,0.375 0,0.128 0.033,0.236 0.102,0.323 0.066,0.088 0.154,0.158 0.261,0.208 0.108,0.051 0.227,0.086 0.358,0.106 0.131,0.021 0.26,0.031 0.387,0.031 0.14,0 0.279,-0.015 0.418,-0.045 0.136,-0.031 0.261,-0.079 0.371,-0.146 0.111,-0.067 0.205,-0.156 0.283,-0.267 0.076,-0.11 0.121,-0.25 0.135,-0.417 l 0.855,0 c -0.019,0.315 -0.088,0.578 -0.201,0.79 -0.113,0.211 -0.268,0.378 -0.457,0.503 -0.192,0.124 -0.414,0.211 -0.664,0.261 -0.252,0.051 -0.522,0.076 -0.811,0.076 -0.228,0 -0.457,-0.029 -0.689,-0.086 -0.231,-0.057 -0.44,-0.144 -0.623,-0.262 -0.186,-0.117 -0.336,-0.27 -0.453,-0.457 -0.118,-0.188 -0.176,-0.413 -0.176,-0.674 0,-0.249 0.049,-0.457 0.144,-0.624 0.098,-0.168 0.227,-0.306 0.389,-0.413 0.16,-0.107 0.342,-0.194 0.543,-0.261 0.201,-0.067 0.408,-0.124 0.623,-0.171 0.215,-0.047 0.424,-0.093 0.629,-0.136 0.205,-0.044 0.387,-0.099 0.543,-0.166 0.158,-0.067 0.285,-0.153 0.383,-0.257 0.097,-0.104 0.146,-0.24 0.146,-0.407 0,-0.161 -0.041,-0.294 -0.121,-0.398 -0.08,-0.104 -0.183,-0.183 -0.307,-0.236 -0.125,-0.054 -0.259,-0.091 -0.408,-0.111 -0.146,-0.02 -0.287,-0.03 -0.422,-0.03 -0.173,0 -0.343,0.017 -0.507,0.05 -0.164,0.034 -0.313,0.089 -0.444,0.166 -0.131,0.078 -0.236,0.18 -0.316,0.307 -0.08,0.127 -0.125,0.289 -0.131,0.483 l -0.855,0 c 0.013,-0.322 0.08,-0.595 0.201,-0.82 0.121,-0.225 0.281,-0.406 0.482,-0.543 0.201,-0.138 0.432,-0.238 0.69,-0.302 0.257,-0.064 0.535,-0.095 0.83,-0.095 0.261,0 0.525,0.027 0.791,0.08 0.263,0.053 0.502,0.144 0.713,0.271 0.21,0.127 0.382,0.295 0.513,0.506 0.131,0.211 0.196,0.47 0.196,0.777 0,0.247 -0.047,0.455 -0.145,0.622"
         style="fill:#ffffff;fill-opacity:1;fill-rule:nonzero;stroke:none"
         id="path148"
         inkscape:connector-curvature="0" /></g></g></svg>