<?xml version="1.0" encoding="UTF-8" standalone="no"?>
<!-- Created with Inkscape (http://www.inkscape.org/) -->

<svg
   xmlns:dc="http://purl.org/dc/elements/1.1/"
   xmlns:cc="http://creativecommons.org/ns#"
   xmlns:rdf="http://www.w3.org/1999/02/22-rdf-syntax-ns#"
   xmlns:svg="http://www.w3.org/2000/svg"
   xmlns="http://www.w3.org/2000/svg"
   xmlns:sodipodi="http://sodipodi.sourceforge.net/DTD/sodipodi-0.dtd"
   xmlns:inkscape="http://www.inkscape.org/namespaces/inkscape"
   id="svg2"
   version="1.1"
   inkscape:version="0.48.4 r9939"
   width="247.94557"
   height="34.803749"
   xml:space="preserve"
   sodipodi:docname="TUM.svg"><metadata
     id="metadata8"><rdf:RDF><cc:Work
         rdf:about=""><dc:format>image/svg+xml</dc:format><dc:type
           rdf:resource="http://purl.org/dc/dcmitype/StillImage" /><dc:title /></cc:Work></rdf:RDF></metadata><defs
     id="defs6"><clipPath
       clipPathUnits="userSpaceOnUse"
       id="clipPath30"><path
         d="m 0,64.75 145.5,0 L 145.5,0 0,0 0,64.75 z"
         id="path32"
         inkscape:connector-curvature="0" /></clipPath><clipPath
       id="gfe9ef2a_0_172.3"><path
         inkscape:connector-curvature="0"
         d="m 0,0 367,0 0,198 -367,0 z"
         clip-rule="nonzero"
         id="path46" /></clipPath><clipPath
       id="clipPath3014"
       clipPathUnits="userSpaceOnUse"><path
         id="path3016"
         d="M 0,595 842,595 842,0 0,0 0,595 z"
         inkscape:connector-curvature="0" /></clipPath></defs><sodipodi:namedview
     pagecolor="#24498a"
     bordercolor="#666666"
     borderopacity="1"
     objecttolerance="10"
     gridtolerance="10"
     guidetolerance="10"
     inkscape:pageopacity="0.98039216"
     inkscape:pageshadow="2"
     inkscape:window-width="1680"
     inkscape:window-height="987"
     id="namedview4"
     showgrid="false"
     inkscape:zoom="4.5415806"
     inkscape:cx="143.75408"
     inkscape:cy="45.342527"
     inkscape:window-x="-8"
     inkscape:window-y="-8"
     inkscape:window-maximized="1"
     inkscape:current-layer="g10"
     fit-margin-top="0"
     fit-margin-left="0"
     fit-margin-right="0"
     fit-margin-bottom="0" /><g
     id="g10"
     inkscape:groupmode="layer"
     inkscape:label="LS_DSS_SU_CMYK_NEGATIV"
     transform="matrix(1.25,0,0,-1.25,34.916404,69.286427)"><g
       transform="matrix(0.9753184,0,0,0.9753184,-339.45772,-255.88625)"
       inkscape:label="TUMLogo_mZ_L_Vollflaeche_negativ_CMYK"
       id="g3000"><g
         transform="translate(473.9502,314.1406)"
         id="g3002"><path
           id="path3004"
           style="fill:#ffffff;fill-opacity:1;fill-rule:nonzero;stroke:none"
           d="m 0,0 0,-23.294 5.05,0 0,23.26 5.613,0 0,-23.26 16.069,0 0,23.014 5.717,0 0,-23.005 5.298,0 0,23.005 5.789,0 0,-23.005 5.298,0 0,28.338 -27.19,0 0,-23.19 -5.825,0 0,23.19 -20.627,0 L -4.808,0 0,0 z"
           inkscape:connector-curvature="0" /></g><g
         transform="translate(321.7681,297.1001)"
         id="g3006"><path
           id="path3008"
           style="fill:#ffffff;fill-opacity:1;fill-rule:nonzero;stroke:none"
           d="m 0,0 -2.36,0 0,0.793 5.661,0 0,-0.793 -2.36,0 0,-6.286 L 0,-6.286 0,0 z"
           inkscape:connector-curvature="0" /></g><g
         id="g3010"><g
           clip-path="url(#clipPath3014)"
           id="g3012"><g
             transform="translate(328.3853,293.8691)"
             id="g3018"><path
               id="path3020"
               style="fill:#ffffff;fill-opacity:1;fill-rule:nonzero;stroke:none"
               d="M 0,0 C -0.04,0.803 -0.645,1.447 -1.477,1.447 -2.359,1.447 -2.884,0.783 -2.944,0 L 0,0 z m 0.813,-1.428 c -0.228,-1.131 -1.042,-1.745 -2.19,-1.745 -1.637,0 -2.41,1.13 -2.459,2.696 0,1.538 1.011,2.667 2.409,2.667 1.813,0 2.369,-1.695 2.32,-2.934 l -3.837,0 c -0.03,-0.893 0.476,-1.686 1.596,-1.686 0.694,0 1.179,0.338 1.328,1.002 l 0.833,0 z"
               inkscape:connector-curvature="0" /></g><g
             transform="translate(333.5884,294.2949)"
             id="g3022"><path
               id="path3024"
               style="fill:#ffffff;fill-opacity:1;fill-rule:nonzero;stroke:none"
               d="m 0,0 c -0.129,0.645 -0.575,1.021 -1.269,1.021 -1.22,0 -1.596,-0.962 -1.596,-2.003 0,-0.942 0.426,-1.873 1.497,-1.873 0.813,0 1.298,0.475 1.408,1.25 l 0.862,0 c -0.189,-1.25 -0.972,-1.994 -2.26,-1.994 -1.567,0 -2.399,1.091 -2.399,2.617 0,1.537 0.792,2.747 2.419,2.747 1.159,0 2.091,-0.545 2.21,-1.765 L 0,0 z"
               inkscape:connector-curvature="0" /></g><g
             transform="translate(335.2837,297.8936)"
             id="g3026"><path
               id="path3028"
               style="fill:#ffffff;fill-opacity:1;fill-rule:nonzero;stroke:none"
               d="m 0,0 0.843,0 0,-2.706 0.019,0 c 0.278,0.614 1.001,0.872 1.616,0.872 1.349,0 1.765,-0.773 1.765,-1.874 l 0,-3.371 -0.843,0 0,3.471 c 0,0.625 -0.397,1.031 -1.041,1.031 -1.022,0 -1.516,-0.685 -1.516,-1.606 l 0,-2.896 L 0,-7.079 0,0 z"
               inkscape:connector-curvature="0" /></g><g
             transform="translate(340.7354,295.9414)"
             id="g3030"><path
               id="path3032"
               style="fill:#ffffff;fill-opacity:1;fill-rule:nonzero;stroke:none"
               d="m 0,0 0.793,0 0,-0.814 0.02,0 c 0.356,0.634 0.932,0.932 1.665,0.932 1.349,0 1.765,-0.773 1.765,-1.874 l 0,-3.371 -0.843,0 0,3.471 c 0,0.625 -0.396,1.031 -1.041,1.031 -1.021,0 -1.516,-0.685 -1.516,-1.605 l 0,-2.897 L 0,-5.127 0,0 z"
               inkscape:connector-curvature="0" /></g><path
             id="path3034"
             style="fill:#ffffff;fill-opacity:1;fill-rule:nonzero;stroke:none"
             d="m 346.261,295.941 0.843,0 0,-5.127 -0.843,0 0,5.127 z m 0.843,0.921 -0.843,0 0,1.031 0.843,0 0,-1.031 z"
             inkscape:connector-curvature="0" /><g
             transform="translate(349.021,292.4307)"
             id="g3036"><path
               id="path3038"
               style="fill:#ffffff;fill-opacity:1;fill-rule:nonzero;stroke:none"
               d="m 0,0 c 0.03,-0.753 0.684,-0.991 1.378,-0.991 0.525,0 1.239,0.119 1.239,0.763 0,0.655 -0.833,0.764 -1.676,0.952 -0.833,0.189 -1.674,0.466 -1.674,1.448 0,1.03 1.021,1.457 1.913,1.457 1.13,0 2.032,-0.357 2.102,-1.607 l -0.843,0 C 2.379,2.677 1.804,2.886 1.249,2.886 0.744,2.886 0.159,2.747 0.159,2.231 0.159,1.626 1.051,1.527 1.834,1.339 2.677,1.15 3.51,0.873 3.51,-0.118 3.51,-1.339 2.37,-1.734 1.329,-1.734 0.178,-1.734 -0.793,-1.269 -0.843,0 L 0,0 z"
               inkscape:connector-curvature="0" /></g><g
             transform="translate(356.7373,294.2949)"
             id="g3040"><path
               id="path3042"
               style="fill:#ffffff;fill-opacity:1;fill-rule:nonzero;stroke:none"
               d="m 0,0 c -0.129,0.645 -0.576,1.021 -1.269,1.021 -1.219,0 -1.596,-0.962 -1.596,-2.003 0,-0.942 0.426,-1.873 1.496,-1.873 0.813,0 1.3,0.475 1.409,1.25 l 0.861,0 c -0.187,-1.25 -0.97,-1.994 -2.26,-1.994 -1.566,0 -2.399,1.091 -2.399,2.617 0,1.537 0.794,2.747 2.419,2.747 1.16,0 2.092,-0.545 2.212,-1.765 L 0,0 z"
               inkscape:connector-curvature="0" /></g><g
             transform="translate(358.5811,297.8936)"
             id="g3044"><path
               id="path3046"
               style="fill:#ffffff;fill-opacity:1;fill-rule:nonzero;stroke:none"
               d="m 0,0 0.842,0 0,-2.706 0.02,0 c 0.278,0.614 1.002,0.872 1.616,0.872 1.349,0 1.765,-0.773 1.765,-1.874 l 0,-3.371 -0.843,0 0,3.471 c 0,0.625 -0.396,1.031 -1.041,1.031 -1.021,0 -1.517,-0.685 -1.517,-1.606 l 0,-2.896 L 0,-7.079 0,0 z"
               inkscape:connector-curvature="0" /></g><g
             transform="translate(367.5278,293.8691)"
             id="g3048"><path
               id="path3050"
               style="fill:#ffffff;fill-opacity:1;fill-rule:nonzero;stroke:none"
               d="M 0,0 C -0.04,0.803 -0.644,1.447 -1.477,1.447 -2.359,1.447 -2.885,0.783 -2.944,0 L 0,0 z m 0.813,-1.428 c -0.228,-1.131 -1.041,-1.745 -2.19,-1.745 -1.637,0 -2.41,1.13 -2.459,2.696 0,1.538 1.011,2.667 2.408,2.667 1.815,0 2.37,-1.695 2.321,-2.934 l -3.837,0 c -0.03,-0.893 0.476,-1.686 1.596,-1.686 0.694,0 1.18,0.338 1.328,1.002 l 0.833,0 z"
               inkscape:connector-curvature="0" /></g><g
             transform="translate(377.8779,293.373)"
             id="g3052"><path
               id="path3054"
               style="fill:#ffffff;fill-opacity:1;fill-rule:nonzero;stroke:none"
               d="M 0,0 C 0,-1.785 -1.021,-2.727 -2.786,-2.727 -4.61,-2.727 -5.69,-1.884 -5.69,0 l 0,4.521 0.941,0 0,-4.521 c 0,-1.249 0.714,-1.934 1.963,-1.934 1.19,0 1.845,0.685 1.845,1.934 l 0,4.521 L 0,4.521 0,0 z"
               inkscape:connector-curvature="0" /></g><g
             transform="translate(379.0596,295.9414)"
             id="g3056"><path
               id="path3058"
               style="fill:#ffffff;fill-opacity:1;fill-rule:nonzero;stroke:none"
               d="m 0,0 0.792,0 0,-0.814 0.021,0 c 0.356,0.634 0.931,0.932 1.665,0.932 1.348,0 1.764,-0.773 1.764,-1.874 l 0,-3.371 -0.842,0 0,3.471 c 0,0.625 -0.397,1.031 -1.041,1.031 -1.021,0 -1.517,-0.685 -1.517,-1.605 l 0,-2.897 L 0,-5.127 0,0 z"
               inkscape:connector-curvature="0" /></g><path
             id="path3060"
             style="fill:#ffffff;fill-opacity:1;fill-rule:nonzero;stroke:none"
             d="m 384.585,295.941 0.843,0 0,-5.127 -0.843,0 0,5.127 z m 0.843,0.921 -0.843,0 0,1.031 0.843,0 0,-1.031 z"
             inkscape:connector-curvature="0" /><g
             transform="translate(389.0107,290.8145)"
             id="g3062"><path
               id="path3064"
               style="fill:#ffffff;fill-opacity:1;fill-rule:nonzero;stroke:none"
               d="m 0,0 -0.903,0 -1.903,5.127 0.942,0 1.437,-4.273 0.02,0 1.398,4.273 0.883,0 L 0,0 z"
               inkscape:connector-curvature="0" /></g><g
             transform="translate(395.04,293.8691)"
             id="g3066"><path
               id="path3068"
               style="fill:#ffffff;fill-opacity:1;fill-rule:nonzero;stroke:none"
               d="M 0,0 C -0.04,0.803 -0.645,1.447 -1.477,1.447 -2.36,1.447 -2.885,0.783 -2.944,0 L 0,0 z m 0.813,-1.428 c -0.229,-1.131 -1.042,-1.745 -2.191,-1.745 -1.636,0 -2.41,1.13 -2.458,2.696 0,1.538 1.01,2.667 2.408,2.667 1.814,0 2.369,-1.695 2.32,-2.934 l -3.836,0 c -0.031,-0.893 0.475,-1.686 1.596,-1.686 0.693,0 1.179,0.338 1.328,1.002 l 0.833,0 z"
               inkscape:connector-curvature="0" /></g><g
             transform="translate(396.9087,295.9414)"
             id="g3070"><path
               id="path3072"
               style="fill:#ffffff;fill-opacity:1;fill-rule:nonzero;stroke:none"
               d="m 0,0 0.793,0 0,-1.081 0.02,0 c 0.406,0.823 0.972,1.229 1.884,1.199 l 0,-0.891 c -1.359,0 -1.854,-0.775 -1.854,-2.073 l 0,-2.281 L 0,-5.127 0,0 z"
               inkscape:connector-curvature="0" /></g><g
             transform="translate(401.0161,292.4307)"
             id="g3074"><path
               id="path3076-6"
               style="fill:#ffffff;fill-opacity:1;fill-rule:nonzero;stroke:none"
               d="m 0,0 c 0.03,-0.753 0.684,-0.991 1.378,-0.991 0.525,0 1.239,0.119 1.239,0.763 0,0.655 -0.833,0.764 -1.675,0.952 -0.833,0.189 -1.676,0.466 -1.676,1.448 0,1.03 1.021,1.457 1.913,1.457 1.131,0 2.033,-0.357 2.102,-1.607 l -0.843,0 C 2.379,2.677 1.804,2.886 1.249,2.886 0.743,2.886 0.159,2.747 0.159,2.231 0.159,1.626 1.05,1.527 1.833,1.339 2.677,1.15 3.509,0.873 3.509,-0.118 c 0,-1.221 -1.14,-1.616 -2.181,-1.616 -1.15,0 -2.121,0.465 -2.171,1.734 L 0,0 z"
               inkscape:connector-curvature="0" /></g><path
             id="path3078"
             style="fill:#ffffff;fill-opacity:1;fill-rule:nonzero;stroke:none"
             d="m 405.58,295.941 0.843,0 0,-5.127 -0.843,0 0,5.127 z m 0.843,0.921 -0.843,0 0,1.031 0.843,0 0,-1.031 z"
             inkscape:connector-curvature="0" /><g
             transform="translate(409.0176,295.9414)"
             id="g3080"><path
               id="path3082"
               style="fill:#ffffff;fill-opacity:1;fill-rule:nonzero;stroke:none"
               d="m 0,0 1.021,0 0,-0.744 -1.021,0 0,-3.183 c 0,-0.386 0.108,-0.456 0.634,-0.456 l 0.387,0 0,-0.744 -0.645,0 c -0.872,0 -1.219,0.18 -1.219,1.121 l 0,3.262 -0.873,0 0,0.744 0.873,0 0,1.536 L 0,1.536 0,0 z"
               inkscape:connector-curvature="0" /></g><path
             id="path3084"
             style="fill:#ffffff;fill-opacity:1;fill-rule:nonzero;stroke:none"
             d="m 413.63,297.715 0.892,0 0,-1.031 -0.892,0 0,1.031 z m -1.863,0 0.892,0 0,-1.031 -0.892,0 0,1.031 z m 2.518,-4.252 c -0.328,-0.238 -0.962,-0.248 -1.527,-0.348 -0.555,-0.099 -1.03,-0.297 -1.03,-0.922 0,-0.554 0.475,-0.754 0.99,-0.754 1.11,0 1.567,0.695 1.567,1.161 l 0,0.863 z m 1.368,-2.629 c -0.149,-0.088 -0.337,-0.138 -0.605,-0.138 -0.437,0 -0.714,0.238 -0.714,0.793 -0.466,-0.546 -1.091,-0.793 -1.805,-0.793 -0.931,0 -1.694,0.417 -1.694,1.438 0,1.159 0.861,1.407 1.734,1.577 0.933,0.178 1.725,0.118 1.725,0.752 0,0.734 -0.604,0.853 -1.14,0.853 -0.714,0 -1.239,-0.218 -1.278,-0.971 l -0.844,0 c 0.05,1.268 1.031,1.715 2.172,1.715 0.921,0 1.923,-0.208 1.923,-1.408 l 0,-2.637 c 0,-0.397 0,-0.576 0.268,-0.576 0.07,0 0.149,0.01 0.258,0.05 l 0,-0.655 z"
             inkscape:connector-curvature="0" /><g
             transform="translate(417.6982,295.9414)"
             id="g3086"><path
               id="path3088"
               style="fill:#ffffff;fill-opacity:1;fill-rule:nonzero;stroke:none"
               d="m 0,0 1.021,0 0,-0.744 -1.021,0 0,-3.183 c 0,-0.386 0.107,-0.456 0.634,-0.456 l 0.387,0 0,-0.744 -0.645,0 c -0.872,0 -1.219,0.18 -1.219,1.121 l 0,3.262 -0.873,0 0,0.744 0.873,0 0,1.536 L 0,1.536 0,0 z"
               inkscape:connector-curvature="0" /></g><g
             transform="translate(422.7344,297.8936)"
             id="g3090"><path
               id="path3092"
               style="fill:#ffffff;fill-opacity:1;fill-rule:nonzero;stroke:none"
               d="M 0,0 1.288,0 3.52,-5.948 5.76,0 l 1.289,0 0,-7.079 -0.893,0 0,5.889 -0.02,0 -2.21,-5.889 -0.803,0 -2.212,5.889 -0.018,0 0,-5.889 L 0,-7.079 0,0 z"
               inkscape:connector-curvature="0" /></g><path
             id="path3094"
             style="fill:#ffffff;fill-opacity:1;fill-rule:nonzero;stroke:none"
             d="m 433.519,297.715 0.892,0 0,-1.031 -0.892,0 0,1.031 z m -1.865,0 0.892,0 0,-1.031 -0.892,0 0,1.031 z m 3.5,-6.901 -0.793,0 0,0.814 -0.02,0 c -0.357,-0.634 -0.932,-0.932 -1.665,-0.932 -1.349,0 -1.765,0.773 -1.765,1.874 l 0,3.371 0.843,0 0,-3.47 c 0,-0.625 0.396,-1.032 1.04,-1.032 1.021,0 1.517,0.685 1.517,1.607 l 0,2.895 0.843,0 0,-5.127 z"
             inkscape:connector-curvature="0" /><g
             transform="translate(436.4004,295.9414)"
             id="g3096"><path
               id="path3098"
               style="fill:#ffffff;fill-opacity:1;fill-rule:nonzero;stroke:none"
               d="m 0,0 0.793,0 0,-0.814 0.02,0 c 0.357,0.634 0.931,0.932 1.666,0.932 1.347,0 1.763,-0.773 1.763,-1.874 l 0,-3.371 -0.842,0 0,3.471 c 0,0.625 -0.396,1.031 -1.041,1.031 -1.021,0 -1.516,-0.685 -1.516,-1.605 l 0,-2.897 L 0,-5.127 0,0 z"
               inkscape:connector-curvature="0" /></g><g
             transform="translate(445.3652,294.2949)"
             id="g3100"><path
               id="path3102"
               style="fill:#ffffff;fill-opacity:1;fill-rule:nonzero;stroke:none"
               d="m 0,0 c -0.129,0.645 -0.575,1.021 -1.27,1.021 -1.219,0 -1.595,-0.962 -1.595,-2.003 0,-0.942 0.427,-1.873 1.497,-1.873 0.813,0 1.299,0.475 1.407,1.25 l 0.863,0 c -0.188,-1.25 -0.971,-1.994 -2.26,-1.994 -1.567,0 -2.399,1.091 -2.399,2.617 0,1.537 0.793,2.747 2.418,2.747 1.16,0 2.093,-0.545 2.211,-1.765 L 0,0 z"
               inkscape:connector-curvature="0" /></g><g
             transform="translate(447.209,297.8936)"
             id="g3104"><path
               id="path3106"
               style="fill:#ffffff;fill-opacity:1;fill-rule:nonzero;stroke:none"
               d="m 0,0 0.843,0 0,-2.706 0.02,0 c 0.277,0.614 1.001,0.872 1.616,0.872 1.347,0 1.763,-0.773 1.763,-1.874 l 0,-3.371 -0.842,0 0,3.471 c 0,0.625 -0.397,1.031 -1.041,1.031 -1.02,0 -1.516,-0.685 -1.516,-1.606 l 0,-2.896 L 0,-7.079 0,0 z"
               inkscape:connector-curvature="0" /></g><g
             transform="translate(456.2363,293.8691)"
             id="g3108"><path
               id="path3110"
               style="fill:#ffffff;fill-opacity:1;fill-rule:nonzero;stroke:none"
               d="M 0,0 C -0.041,0.803 -0.645,1.447 -1.478,1.447 -2.36,1.447 -2.886,0.783 -2.944,0 L 0,0 z m 0.813,-1.428 c -0.228,-1.131 -1.042,-1.745 -2.191,-1.745 -1.637,0 -2.409,1.13 -2.459,2.696 0,1.538 1.012,2.667 2.409,2.667 1.814,0 2.368,-1.695 2.32,-2.934 l -3.836,0 c -0.031,-0.893 0.474,-1.686 1.594,-1.686 0.696,0 1.18,0.338 1.329,1.002 l 0.834,0 z"
               inkscape:connector-curvature="0" /></g><g
             transform="translate(458.0391,295.9414)"
             id="g3112"><path
               id="path3114"
               style="fill:#ffffff;fill-opacity:1;fill-rule:nonzero;stroke:none"
               d="m 0,0 0.793,0 0,-0.814 0.02,0 c 0.357,0.634 0.932,0.932 1.666,0.932 1.349,0 1.763,-0.773 1.763,-1.874 l 0,-3.371 -0.842,0 0,3.471 c 0,0.625 -0.396,1.031 -1.04,1.031 -1.021,0 -1.517,-0.685 -1.517,-1.605 l 0,-2.897 L 0,-5.127 0,0 z"
               inkscape:connector-curvature="0" /></g></g></g></g></g></svg>